<svg width="24" height="24" viewBox="0 0 24 24" fill="none" xmlns="http://www.w3.org/2000/svg">
<rect width="24" height="24" fill="#010103"/>
<path d="M9.2064 15.138H5.3144L4.6704 17H2.6124L6.1264 7.214H8.4084L11.9224 17H9.8504L9.2064 15.138ZM8.6744 13.57L7.2604 9.482L5.8464 13.57H8.6744ZM14.8879 7.228V13.276C14.8879 13.9387 15.0606 14.4473 15.4059 14.802C15.7512 15.1473 16.2366 15.32 16.8619 15.32C17.4966 15.32 17.9866 15.1473 18.3319 14.802C18.6772 14.4473 18.8499 13.9387 18.8499 13.276V7.228H20.8239V13.262C20.8239 14.0927 20.6419 14.7973 20.2779 15.376C19.9232 15.9453 19.4426 16.3747 18.8359 16.664C18.2386 16.9533 17.5712 17.098 16.8339 17.098C16.1059 17.098 15.4432 16.9533 14.8459 16.664C14.2579 16.3747 13.7912 15.9453 13.4459 15.376C13.1006 14.7973 12.9279 14.0927 12.9279 13.262V7.228H14.8879Z" fill="#45E6B4"/>
<path d="M2.2484 18.4H21.7479V19.1H2.2484V18.4Z" fill="#45E6B4"/>
</svg>
