<svg width="51" height="56" viewBox="0 0 51 56" fill="none" xmlns="http://www.w3.org/2000/svg">
<path d="M39.9252 19.8489L38.0949 21.0622C36.9781 19.403 35.5201 18.0963 33.7208 17.1422C31.9422 16.1674 30.0085 15.68 27.9197 15.68C24.528 15.68 21.6326 16.883 19.2336 19.2889C16.8346 21.6948 15.635 24.5985 15.635 28C15.635 31.4015 16.8346 34.3052 19.2336 36.7111C21.6326 39.117 24.528 40.32 27.9197 40.32C30.0085 40.32 31.9422 39.8326 33.7208 38.8578C35.5201 37.883 36.9781 36.5659 38.0949 34.9067L39.8942 36.2133C38.5706 38.163 36.854 39.7081 34.7445 40.8489C32.635 41.9896 30.3601 42.56 27.9197 42.56C25.955 42.56 24.073 42.1763 22.2737 41.4089C20.4951 40.6415 18.9544 39.6044 17.6515 38.2978C16.3485 36.9911 15.3145 35.4459 14.5493 33.6622C13.7841 31.8578 13.4015 29.9704 13.4015 28C13.4015 26.0296 13.7841 24.1526 14.5493 22.3689C15.3145 20.5644 16.3485 19.0089 17.6515 17.7022C18.9544 16.3956 20.4951 15.3585 22.2737 14.5911C24.073 13.8237 25.955 13.44 27.9197 13.44C30.3808 13.44 32.6661 14.0207 34.7755 15.1822C36.885 16.323 38.6016 17.8785 39.9252 19.8489ZM43.6168 17.2978L41.7555 18.5111C40.2251 16.2711 38.2397 14.4978 35.7993 13.1911C33.3796 11.8637 30.753 11.2 27.9197 11.2C24.8796 11.2 22.0773 11.957 19.5128 13.4711C16.9483 14.9644 14.9112 16.997 13.4015 19.5689C11.9124 22.1407 11.1679 24.9511 11.1679 28C11.1679 31.0489 11.9124 33.8593 13.4015 36.4311C14.9112 39.003 16.9483 41.0459 19.5128 42.56C22.0773 44.0533 24.8796 44.8 27.9197 44.8C30.753 44.8 33.3899 44.1363 35.8303 42.8089C38.2707 41.4815 40.2561 39.6874 41.7865 37.4267L43.6168 38.7022C41.8796 41.2741 39.6253 43.3067 36.854 44.8C34.1034 46.2933 31.1253 47.04 27.9197 47.04C24.4866 47.04 21.312 46.1896 18.396 44.4889C15.4799 42.7881 13.174 40.4756 11.4781 37.5511C9.78224 34.6267 8.93431 31.443 8.93431 28C8.93431 24.557 9.78224 21.3733 11.4781 18.4489C13.174 15.5244 15.4799 13.2119 18.396 11.5111C21.312 9.81037 24.4866 8.96 27.9197 8.96C31.1253 8.96 34.1034 9.70667 36.854 11.2C39.6253 12.6933 41.8796 14.7259 43.6168 17.2978ZM47.3394 14.8089L45.4781 16.0222C43.5341 13.16 41.0109 10.8993 37.9088 9.24C34.8273 7.56 31.4976 6.72 27.9197 6.72C25.045 6.72 22.2944 7.28 19.6679 8.4C17.0414 9.52 14.7768 11.0341 12.8741 12.9422C10.9921 14.8296 9.4927 17.0904 8.37591 19.7244C7.25912 22.3585 6.70073 25.117 6.70073 28C6.70073 30.883 7.25912 33.6415 8.37591 36.2756C9.4927 38.9096 10.9921 41.1807 12.8741 43.0889C14.7768 44.9763 17.0414 46.48 19.6679 47.6C22.2944 48.72 25.045 49.28 27.9197 49.28C31.5182 49.28 34.8583 48.44 37.9398 46.76C41.0213 45.08 43.5341 42.8089 45.4781 39.9467L47.2774 41.2844C45.1265 44.437 42.3449 46.9363 38.9325 48.7822C35.5408 50.6074 31.8698 51.52 27.9197 51.52C23.68 51.52 19.761 50.4726 16.1624 48.3778C12.5639 46.2622 9.70985 43.4 7.60037 39.7911C5.51156 36.1822 4.46715 32.2519 4.46715 28C4.46715 23.7481 5.51156 19.8178 7.60037 16.2089C9.70985 12.6 12.5639 9.74815 16.1624 7.65333C19.761 5.53778 23.68 4.48 27.9197 4.48C31.8905 4.48 35.5821 5.41333 38.9945 7.28C42.4069 9.12593 45.1886 11.6356 47.3394 14.8089ZM51 12.2578L49.1387 13.4711C46.781 10.0074 43.7305 7.26963 39.9872 5.25778C36.2646 3.24593 32.2421 2.24 27.9197 2.24C24.4453 2.24 21.1156 2.92444 17.9307 4.29333C14.7664 5.64148 12.0365 7.46667 9.74088 9.76889C7.44526 12.0711 5.61496 14.8193 4.25 18.0133C2.90572 21.1867 2.23358 24.5156 2.23358 28C2.23358 31.4844 2.90572 34.8237 4.25 38.0178C5.61496 41.1911 7.44526 43.9289 9.74088 46.2311C12.0365 48.5333 14.7664 50.3689 17.9307 51.7378C21.1156 53.0859 24.4453 53.76 27.9197 53.76C32.2421 53.76 36.2749 52.7437 40.0182 50.7111C43.7616 48.6785 46.812 45.9304 49.1697 42.4667L50.969 43.8356C48.4045 47.5689 45.0955 50.5348 41.042 52.7333C36.9884 54.9111 32.6144 56 27.9197 56C24.135 56 20.5158 55.2533 17.062 53.76C13.629 52.2874 10.6612 50.3067 8.15876 47.8178C5.67701 45.3081 3.69161 42.3319 2.20255 38.8889C0.734185 35.4252 0 31.7956 0 28C0 24.2044 0.734185 20.5852 2.20255 17.1422C3.69161 13.6785 5.67701 10.7022 8.15876 8.21333C10.6612 5.7037 13.629 3.71259 17.062 2.24C20.5158 0.746667 24.135 0 27.9197 0C32.635 0 37.0195 1.09926 41.073 3.29778C45.1265 5.4963 48.4355 8.48296 51 12.2578Z" fill="#45E6B4"/>
</svg>
